<?xml version="1.0" encoding="UTF-8"?>
<svg xmlns="http://www.w3.org/2000/svg" viewBox="0 0 500 500" width="500" height="500">
<path d="M307.5 50.96C315.39 49.92 325.15 50.81 333.25 50.82C338.58 50.83 343.92 50.85 349.25 50.85C352.2 50.84 355.6 50.54 358.48 51.24C367.62 53.47 372.97 60.11 377.24 68.03C378.51 70.38 380.45 72.75 381.18 75.21C380.23 75.5 377.64 77.74 377.39 78.77C377.06 80.08 377.93 81.88 377.33 83.15C377.07 83.69 376.1 83.91 375.73 84.49C375.55 84.78 375.53 85.37 375.33 85.59C375.16 85.79 371.27 89.27 371.15 89.33C370.36 89.7 369.13 89.1 368.39 89.61C366.8 90.7 368.04 93.48 366.62 94.81C365.35 95.99 362.64 94.88 361.61 96.39C361.1 97.13 361.7 98.36 361.33 99.15C361.19 99.44 355.44 105.19 355.15 105.33C353.9 105.92 352.17 105.01 351.55 106.83C351.21 107.83 352.39 110.68 351.58 111.29C350.38 112.2 347.89 111 346.49 111.73C344.95 112.53 345.93 114.25 345.16 115.35C344.96 115.63 339.21 121.3 339.15 121.33C338.03 121.86 336.89 121.07 335.97 122.22C335.02 123.42 335.92 126.78 335.15 127.33C334.01 128.13 331.8 127.05 330.49 127.73C329.01 128.5 329.88 129.99 329.33 131.15C329.1 131.62 327.6 132.91 327.16 133.35C326.65 133.85 323.42 137.2 323.15 137.33C321.99 137.88 320.5 137.01 319.73 138.49C319.05 139.8 320.13 142.01 319.33 143.15C318.65 144.1 315.58 143.17 314.49 143.73C312.95 144.53 313.93 146.25 313.16 147.35C312.96 147.63 307.21 153.3 307.15 153.33C306.36 153.7 305.13 153.1 304.39 153.61C302.8 154.7 304.04 157.48 302.62 158.81C301.29 160.05 299.15 158.94 297.8 160.21C297.04 160.92 297.74 162.28 297.33 163.15C297.07 163.69 296.1 163.91 295.73 164.49C295.46 164.92 295.48 165.45 295.13 165.81C294.27 166.69 293.22 167.15 292.22 167.97C291.81 168.31 291.59 169.12 291.15 169.33C290.36 169.7 289.13 169.1 288.39 169.61C286.8 170.7 288.04 173.48 286.62 174.81C285.35 175.99 282.64 174.88 281.61 176.39C281.1 177.13 281.7 178.36 281.33 179.15C281.09 179.65 275.65 185.09 275.15 185.33C274.03 185.86 272.89 185.07 271.97 186.22C271.02 187.41 272.38 189.98 271.4 190.63C270.52 191.22 266.02 191.21 265.61 191.8C264.84 192.9 267.08 194.68 265.6 195.82C265.1 196.21 264.3 195.92 263.8 196.23C263.21 196.6 260.63 200.46 260.24 200.52C259.55 200.63 259.45 199.81 258.74 199.77C258.13 199.74 255.42 201.84 255.2 202.41C255.08 202.72 255.31 203.08 255.25 203.41C256.87 203.37 256.96 201.47 258.73 201.79C261.18 202.22 258.63 203.4 258.81 204.2C258.96 204.9 260.41 204.98 260.88 205.39C261.53 205.97 261.31 206.81 261.76 207.5C262.4 208.48 264.21 208.57 265.13 209.25C263.2 210.54 261.49 208.3 259.42 208.2C255.76 207.34 252.31 204.68 248.97 202.97C244.42 200.64 239.75 198.46 235.21 196.11C233.33 195.14 229.66 194.33 228.65 192.25C227.77 190.45 229.16 187.08 229.57 185.26C230.86 179.45 231.91 173.6 233.14 167.78C236.71 150.9 240 133.92 243.78 117.09C245.12 111.11 245.74 104.88 247.48 99C247.85 99.42 248.22 99.83 248.59 100.25C248.88 99.34 248.93 98.33 249.25 97.45C249.59 96.54 250.53 96.43 251.05 95.77C252.42 94.05 251.38 92.38 250.66 90.75C251.41 90.72 250.94 90.22 251.66 90.39C252.45 90.57 252.05 91.8 253.18 91.55C254.89 91.17 254.89 87.84 255.4 87.49C255.65 87.31 257.22 88.13 257.73 88.06C258.88 87.89 262.73 84.24 263.43 83.23C264.06 82.34 263.87 80.98 264.37 80.11C264.63 79.68 265.2 79.64 265.43 79.23C265.86 78.46 265.63 77.24 266.32 76.55C266.79 76.08 267.57 76.25 267.97 75.74C268.3 75.32 268.05 74.66 268.43 74.27C269.06 73.64 270.88 73.96 271.37 73.23C271.86 72.51 271.32 71.34 271.87 70.58C272.52 69.67 275.25 68.57 275.94 67.7C276.21 67.35 276.04 66.75 276.27 66.43C276.71 65.85 277.57 66.07 277.89 65.13C278.17 64.34 277.64 63.35 278.46 62.76C280.04 61.62 285.27 62.75 287.87 61.25C286.24 59.47 280.44 60.71 280.31 59.26C280.27 58.77 281.32 57.76 281.71 57.65C283.54 57.14 285.89 57.77 287.65 57.18C289.49 56.55 288.63 54.52 292.25 55.04C292.13 54.83 292.37 54.48 292.2 54.33C291.74 53.92 289.86 54.3 290.71 52.93C291.2 52.14 293.94 52.63 294.75 52.55C299.07 52.12 303.43 52.4 307.75 52C307.2 51.69 307.2 51.8 307.5 50.96ZM236.07 112.72C236.15 115.74 235.08 118.79 234.4 121.73C233.63 125.02 233.1 128.42 232.42 131.74C229.77 144.58 226.96 157.38 224.49 170.25C223.63 174.69 222.49 179.11 221.77 183.57C221.59 184.64 221.52 187.63 220.22 188C218.8 188.41 212.83 184.75 211.25 183.99C204.71 180.82 197.87 177.8 191.64 174.11C189.01 172.56 186.06 171.62 183.5 169.95C185.92 166.79 183.62 169.31 182.98 167.16C182.77 166.48 183.35 166.04 183.24 165.38C182.84 163.01 181.51 165.48 182.23 161.75C182.34 161.17 182.14 160.67 182.4 160.12C183.08 158.68 184.69 159.65 185.66 158.94C186.45 158.37 185.86 157.27 186.36 156.57C186.76 156 187.56 156.26 187.97 155.74C188.3 155.32 188.05 154.66 188.43 154.27C189.06 153.64 190.88 153.96 191.37 153.23C191.83 152.55 191.44 151.36 191.87 150.58C192.3 149.79 193.18 149.89 193.74 149.4C194.12 149.08 194.04 148.55 194.43 148.27C194.75 148.04 195.34 148.22 195.7 147.94C196.15 147.58 195.99 146.99 196.34 146.58C196.7 146.15 197.3 146.28 197.67 145.94C198.15 145.51 198.05 144.77 198.58 144.35C199.28 143.79 200.6 144.08 201.24 143.38C201.9 142.68 201.58 141.28 202.32 140.55C202.79 140.08 203.57 140.25 203.97 139.74C204.3 139.32 204.05 138.66 204.43 138.27C205.03 137.67 206.51 137.88 207.18 137.43C208.01 136.89 208.03 135.35 209.07 134.84C210.01 134.37 210.93 134.76 211.81 134.06C212.48 133.54 214.22 131.97 214.5 131.19C214.75 130.49 214.5 129.75 214.84 129.07C215.35 128.03 216.89 128.01 217.43 127.18C217.91 126.46 217.64 125.23 218.32 124.55C218.79 124.08 219.57 124.25 219.97 123.74C220.3 123.32 220.05 122.66 220.43 122.27C221.29 121.41 222.81 122.05 223.74 121.7C224.6 121.38 224.32 120.71 224.88 120.27C225.72 119.63 227.37 120.13 228.15 119.55C228.64 119.18 228.47 118.45 228.85 118.01C229.35 117.43 230.17 117.59 230.44 116.69C230.94 115.01 229.86 112.42 230.77 110.89C231.58 109.52 232.44 111.71 233.61 110.87C234.39 110.3 232.95 107.94 234.25 106.46C234.94 107.4 235.05 108.62 235.65 109.64C235.79 109.87 236.35 110.09 236.38 110.34C236.51 111.6 235.27 111.28 236.07 112.72ZM172.67 173.82C177.44 175.23 182.13 178.42 186.59 180.68C193.34 184.11 200.25 187.29 206.97 190.78C209.24 191.96 217.56 195.33 218.55 197.22C219.17 198.41 218.29 200.04 218.08 201.26C217.51 204.61 216.53 207.88 216.01 211.25C214.58 220.68 211.99 229.96 210.17 239.32C209.55 242.48 208.77 245.63 208.15 248.79C207.69 251.18 207.62 253.91 206.63 256.09C205.83 255.55 203.27 255.17 203.14 254.99C202.14 253.72 205.05 250.54 203.21 249.53C202.13 248.94 200.19 251.81 200.18 252.69C200.15 254 200.73 255.42 200.67 256.75C200.51 259.93 198.27 262.63 198.05 265.75C197.97 266.83 198.22 270.8 197.21 271.41C196.37 271.92 194.48 270.93 194.25 270.11C193.76 268.32 195.92 262.31 191.35 264.53C189.41 265.47 191.29 270.52 190.15 271.33C189.25 271.96 187.54 271.19 186.49 271.73C184.95 272.53 185.93 274.25 185.16 275.35C184.96 275.63 179.21 281.3 179.15 281.33C178.03 281.86 176.89 281.07 175.97 282.22C174.86 283.61 176.36 286.29 174.95 287.28C173.63 288.2 171.22 286.88 169.8 288.21C169 288.96 169.78 290.47 169.16 291.35C168.96 291.63 163.21 297.3 163.15 297.33C162.16 297.8 161.17 297.21 160.22 297.97C158.52 299.33 160.54 302.17 158.95 303.28C157.63 304.2 155.22 302.88 153.8 304.21C153.04 304.92 153.74 306.28 153.33 307.15C153.2 307.42 149.85 310.65 149.35 311.16C148.91 311.6 147.62 313.1 147.15 313.33C146.28 313.74 144.92 313.04 144.21 313.8C142.94 315.15 144.05 317.29 142.81 318.62C141.48 320.04 138.7 318.8 137.61 320.39C137.1 321.13 137.7 322.36 137.33 323.15C137.27 323.27 133.79 327.16 133.59 327.33C133.37 327.53 132.78 327.55 132.49 327.73C131.91 328.1 131.69 329.07 131.15 329.33C130.28 329.74 128.92 329.04 128.21 329.8C126.94 331.15 128.05 333.29 126.81 334.62C125.43 336.1 123.23 334.87 121.8 336.21C121.04 336.92 121.74 338.28 121.33 339.15C121.07 339.69 120.1 339.91 119.73 340.49C119.55 340.78 119.53 341.37 119.33 341.59C119.16 341.79 115.27 345.27 115.15 345.33C114.36 345.7 113.13 345.1 112.39 345.61C110.88 346.64 111.99 349.35 110.81 350.62C109.48 352.04 106.7 350.8 105.61 352.39C105.1 353.13 105.7 354.36 105.33 355.15C105.13 355.57 104.31 355.85 103.97 356.22C103.06 357.23 100.11 360.8 99.15 361.33C98.65 361.6 97.99 361.32 97.51 361.73C96.55 362.56 97.35 364.83 95.64 365.36C92.67 366.28 93.08 359.68 92.12 358.79C91.96 358.63 91.11 358.78 90.89 358.74C90.38 358.66 89.86 358.15 89.34 358.54C87.46 359.92 90.9 365.3 91.28 366.87C91.44 367.57 91.29 369.58 92.01 370.02C92.59 370.37 93.33 369.51 94.09 370.15C94.64 370.63 94.59 372.96 94.25 373.53C93.97 374.02 93.39 374.04 92.94 374.26C87.89 376.68 91.87 370.88 90.36 369.35C89.63 368.61 86.91 368.4 86.22 369.39C85.99 369.73 85.91 370.7 85.8 371.12C83.07 368.43 78.29 358.6 76.04 354.72C69.68 343.74 63.54 332.71 56.95 321.84C53.7 316.46 50.42 310.95 47.74 305.34C46.96 303.72 45.63 302.89 45.24 301C46.43 298.55 46.08 299.26 47.85 300.25C47.6 297.93 46.34 298.81 45.65 297.24C45.45 296.8 45.78 296.44 45.69 296C45.46 294.89 44.04 294.08 44.44 292.82C44.63 292.2 46.55 291.41 47.13 291.6C48.14 291.92 47.82 293.36 48.39 293.96C50.35 296.02 52.54 293.23 53.81 292.06C54.87 291.09 54.27 289.84 55.06 288.81C55.82 287.83 57.31 288.39 57.94 287.65C58.66 286.8 57.75 285.44 58.36 284.57C58.76 284 59.56 284.26 59.97 283.74C60.3 283.32 60.05 282.66 60.43 282.27C61.06 281.64 62.88 281.96 63.37 281.23C63.77 280.64 63.43 279.55 63.69 278.88C64.12 277.77 68.21 274.49 69.25 273.44C69.75 272.95 70.11 271.92 70.86 271.71C71.71 271.46 73.19 272.53 73.93 271.65C74.51 270.96 73.97 269.66 74.22 268.88C74.49 268.08 75.31 268.13 75.83 267.56C76.18 267.18 76.09 266.63 76.57 266.34C77.49 265.78 78.77 266.6 79.7 265.94C80.27 265.52 79.94 264.64 80.43 264.27C81.09 263.78 82.46 263.98 83.24 263.38C84.56 262.37 86.37 260.56 87.38 259.24C87.98 258.46 87.78 257.09 88.27 256.43C88.64 255.94 89.52 256.28 89.93 255.7C90.48 254.91 89.95 253.72 90.22 252.88C90.25 252.81 92.13 250.73 92.32 250.55C93.23 249.67 94.72 250.72 95.65 249.94C96.18 249.49 95.77 248.5 96.22 247.95C96.63 247.42 99.12 246.74 100.04 245.81C100.6 245.24 101.66 244.38 102.01 243.69C102.19 243.33 102.04 242.73 102.26 242.42C102.54 242 103.1 242.15 103.41 241.74C103.72 241.32 103.58 240.65 103.93 240.19C104.31 239.69 105.11 239.67 105.43 239.18C105.9 238.46 105.64 237.23 106.32 236.55C106.79 236.08 107.57 236.25 107.97 235.74C108.3 235.32 108.05 234.66 108.43 234.27C109.03 233.67 110.5 233.87 111.18 233.43C111.99 232.91 112.16 231.35 113.07 230.84C113.73 230.47 114.49 230.75 115.19 230.5C115.87 230.25 117.4 228.63 117.8 228.04C118.14 227.55 117.96 226.84 118.26 226.42C118.54 226 119.1 226.15 119.41 225.74C119.72 225.32 119.58 224.65 119.93 224.19C120.31 223.69 121.11 223.67 121.43 223.18C121.9 222.46 121.64 221.23 122.32 220.55C122.79 220.08 123.57 220.25 123.97 219.74C124.3 219.32 124.05 218.66 124.43 218.27C125.03 217.67 126.52 217.83 127.23 217.43C127.89 217.07 128.06 215.99 128.88 215.7C129.73 215.4 130.65 215.74 131.44 215.2C131.94 214.86 135.15 211.69 135.38 211.23C135.74 210.5 135.44 209.61 135.7 208.88C135.99 208.06 137.06 207.89 137.43 207.23C137.86 206.46 137.63 205.24 138.32 204.55C138.72 204.14 139.38 204.29 139.74 203.96C140.25 203.49 139.98 202.72 140.43 202.27C141.03 201.67 142.5 201.87 143.18 201.43C143.67 201.11 143.69 200.31 144.19 199.93C144.65 199.58 145.32 199.72 145.74 199.41C146.15 199.1 146 198.54 146.42 198.26C146.84 197.96 147.55 198.14 148.04 197.8C148.63 197.4 150.25 195.87 150.5 195.19C150.75 194.49 150.47 193.73 150.84 193.07C151.35 192.16 152.91 191.99 153.43 191.18C153.89 190.47 153.68 188.82 154.43 188.27C154.76 188.03 155.39 188.25 155.74 187.97C156.37 187.48 155.97 186.53 156.88 186.22C157.71 185.94 158.9 186.57 159.65 185.94C160.27 185.41 159.71 184.3 160.47 183.74C160.84 183.46 161.64 183.5 162.09 183.31C163.24 182.83 165.12 181.04 165.8 180.04C166.15 179.54 165.97 178.87 166.26 178.42C166.55 177.94 167.38 178.08 167.26 177.34C167.23 177.15 162.83 175.18 166.78 174.16C168.86 173.62 169.52 175.95 171.34 176.41C172.77 176.76 174.1 176.11 175.5 176.25C174.65 175.56 173.75 174.92 172.75 174.5C172.67 174.47 172.24 174.45 172.21 174.24C172.19 174.02 172.62 173.92 172.67 173.82ZM250.19 212.94C249.69 213.65 248.77 214.06 248.4 214.78C248.06 215.44 248.43 216.43 247.68 216.91C246.49 217.67 244.72 216.99 243.43 217.69C242.57 218.16 242.69 219.4 242.09 219.78C240.36 220.88 239.43 218.18 237.79 218.69C236.21 219.19 233.88 222.64 233.51 224.27C233.3 225.24 233.75 226.52 233.16 227.35C232.96 227.62 227.2 233.3 227.15 233.33C225.58 234.07 224.56 232.5 223.84 232.57C222.58 232.69 222.07 235.29 221.79 236.12C221.42 237.25 221.33 238.62 220.89 239.69C220.62 240.35 220 240.3 219.69 240.84C218.99 242.05 218.92 244.57 218.75 245.95C218.32 245.46 217.9 244.98 217.47 244.5C217.75 241.13 218.66 237.73 219.52 234.48C219.91 233.01 219.91 231.43 220.23 229.94C221.51 224.07 222.99 218.18 223.96 212.25C224.41 209.46 225.08 206.73 225.74 203.99C225.91 203.3 226.01 201.76 226.76 201.43C228.23 200.77 231.25 203.05 232.57 203.69C236.59 205.62 240.52 207.7 244.47 209.76C246.36 210.75 248.7 211.45 250.19 212.94Z" fill="#73146e" fill-rule="evenodd" stroke="#73146e" stroke-width="0.25" stroke-linejoin="round"/>
<path d="M381.18 75.21C395.33 99.55 409.48 123.89 423.63 148.22C421.86 148.78 418.47 152.61 420.7 153.61C421.69 154.05 422.07 152.52 423.02 153.22C424.65 154.41 422.34 156.95 420.77 156.41C419.83 156.09 419.98 154.52 419.45 153.81C418.85 153 416.96 151.68 417.54 150.32C417.69 149.95 418.43 149.78 418.73 149.52C420.35 148.17 420.43 145.97 419.25 144.57C418.57 145.59 418.69 146.68 418.03 147.74C417.31 148.88 415.49 149.45 415.15 150.84C414.71 152.65 417.39 153.92 416.08 155.61C415.76 156.01 414.73 155.75 414.31 156.09C413.86 156.44 414.01 157.04 413.67 157.45C413.29 157.89 412.69 157.74 412.31 158.09C411.92 158.43 412.02 159.03 411.61 159.32C410.78 159.9 409.16 159.51 408.31 160.16C407.25 160.97 407.9 162.68 407.32 163.61C407.06 164.03 406.42 163.93 406.09 164.31C405.83 164.6 405.93 165.14 405.67 165.45C405.29 165.89 404.69 165.74 404.31 166.09C403.93 166.42 404.03 167.06 403.61 167.32C402.77 167.84 401.19 167.29 400.37 168.09C399.48 168.95 399.96 170.68 399.32 171.61C399.03 172.02 398.43 171.92 398.09 172.31C397.74 172.69 397.89 173.29 397.45 173.67C397.14 173.93 396.6 173.83 396.31 174.09C395.92 174.43 396.02 175.03 395.61 175.32C394.78 175.9 393.16 175.51 392.31 176.16C391.25 176.97 391.9 178.68 391.32 179.61C391.06 180.03 390.42 179.93 390.09 180.31C389.83 180.6 389.93 181.14 389.67 181.45C389.29 181.89 388.69 181.74 388.31 182.09C387.93 182.42 388.03 183.06 387.61 183.32C386.68 183.9 384.97 183.25 384.16 184.31C383.51 185.16 383.9 186.78 383.32 187.61C383.03 188.02 382.43 187.92 382.09 188.31C381.74 188.69 381.89 189.29 381.45 189.67C381.14 189.93 380.6 189.83 380.31 190.09C379.92 190.43 380.02 191.03 379.61 191.32C378.68 191.96 376.95 191.48 376.09 192.37C375.29 193.19 375.84 194.77 375.32 195.61C375.06 196.03 374.42 195.93 374.09 196.31C373.83 196.6 373.93 197.14 373.67 197.45C373.29 197.89 372.69 197.74 372.31 198.09C371.93 198.42 372.03 199.06 371.61 199.32C370.77 199.84 369.19 199.29 368.37 200.09C367.48 200.95 367.96 202.68 367.32 203.61C367.03 204.02 366.43 203.92 366.09 204.31C365.74 204.69 365.89 205.29 365.45 205.67C365.14 205.93 364.6 205.83 364.31 206.09C363.92 206.43 364.02 207.03 363.61 207.32C362.68 207.96 360.95 207.48 360.09 208.37C359.29 209.19 359.84 210.77 359.32 211.61C359.06 212.03 358.42 211.93 358.09 212.31C357.83 212.6 357.93 213.14 357.67 213.45C357.29 213.89 356.69 213.74 356.31 214.09C355.93 214.42 356.03 215.06 355.61 215.32C354.77 215.84 353.19 215.29 352.37 216.09C351.48 216.95 351.96 218.68 351.32 219.61C351.03 220.02 350.43 219.92 350.09 220.31C349.83 220.6 349.93 221.14 349.67 221.45C349.29 221.89 348.69 221.74 348.31 222.09C347.72 222.61 347.98 223.47 347.14 223.8C346.3 224.12 344.72 223.56 344.09 224.37C343.43 225.21 344.24 226.59 343.67 227.45C343.34 227.95 342.49 227.93 342 228.23C340.87 228.93 340.21 230.73 339.14 231.32C338.32 231.77 337.27 231.41 336.74 232.49C336.19 233.59 336.11 236.44 334.98 237.21C334.6 237.47 330.59 235.07 328.79 236.19C328.31 236.49 328.49 237.27 328.38 237.73C328.1 238.93 326.59 239.69 327.1 240.71C327.21 240.93 327.92 241.1 328.14 241.18C330.36 242.01 332.14 237.77 333.87 239.94C334.77 241.07 332.59 241.15 332.56 242.31C332.55 242.53 333.47 243.91 333.62 244.12C334.49 245.28 340.07 247.7 339.83 249.23C339.46 251.55 337.26 249.01 336.42 248.5C334.31 245.87 330.83 244.47 327.77 243.09C323.36 241.1 319.15 238.58 314.79 236.46C302.75 230.61 291 224.17 278.98 218.28C274.31 215.98 269.69 213.59 265.05 211.23C263.18 210.28 261.03 209.52 259.42 208.2C261.49 208.3 263.2 210.54 265.13 209.25C264.21 208.57 262.4 208.48 261.76 207.5C261.31 206.81 261.53 205.97 260.88 205.39C260.41 204.98 258.96 204.9 258.81 204.2C258.63 203.4 261.18 202.22 258.73 201.79C256.96 201.47 256.87 203.37 255.25 203.41C255.31 203.08 255.08 202.72 255.2 202.41C255.42 201.84 258.13 199.74 258.74 199.77C259.45 199.81 259.55 200.63 260.24 200.52C260.63 200.46 263.21 196.6 263.8 196.23C264.3 195.92 265.1 196.21 265.6 195.82C267.08 194.68 264.84 192.9 265.61 191.8C266.02 191.21 270.52 191.22 271.4 190.63C272.38 189.98 271.02 187.41 271.97 186.22C272.89 185.07 274.03 185.86 275.15 185.33C275.65 185.09 281.09 179.65 281.33 179.15C281.7 178.36 281.1 177.13 281.61 176.39C282.64 174.88 285.35 175.99 286.62 174.81C288.04 173.48 286.8 170.7 288.39 169.61C289.13 169.1 290.36 169.7 291.15 169.33C291.59 169.12 291.81 168.31 292.22 167.97C293.22 167.15 294.27 166.69 295.13 165.81C295.48 165.45 295.46 164.92 295.73 164.49C296.1 163.91 297.07 163.69 297.33 163.15C297.74 162.28 297.04 160.92 297.8 160.21C299.15 158.94 301.29 160.05 302.62 158.81C304.04 157.48 302.8 154.7 304.39 153.61C305.13 153.1 306.36 153.7 307.15 153.33C307.21 153.3 312.96 147.63 313.16 147.35C313.93 146.25 312.95 144.53 314.49 143.73C315.58 143.17 318.65 144.1 319.33 143.15C320.13 142.01 319.05 139.8 319.73 138.49C320.5 137.01 321.99 137.88 323.15 137.33C323.42 137.2 326.65 133.85 327.16 133.35C327.6 132.91 329.1 131.62 329.33 131.15C329.88 129.99 329.01 128.5 330.49 127.73C331.8 127.05 334.01 128.13 335.15 127.33C335.92 126.78 335.02 123.42 335.97 122.22C336.89 121.07 338.03 121.86 339.15 121.33C339.21 121.3 344.96 115.63 345.16 115.35C345.93 114.25 344.95 112.53 346.49 111.73C347.89 111 350.38 112.2 351.58 111.29C352.39 110.68 351.21 107.83 351.55 106.83C352.17 105.01 353.9 105.92 355.15 105.33C355.44 105.19 361.19 99.44 361.33 99.15C361.7 98.36 361.1 97.13 361.61 96.39C362.64 94.88 365.35 95.99 366.62 94.81C368.04 93.48 366.8 90.7 368.39 89.61C369.13 89.1 370.36 89.7 371.15 89.33C371.27 89.27 375.16 85.79 375.33 85.59C375.53 85.37 375.55 84.78 375.73 84.49C376.1 83.91 377.07 83.69 377.33 83.15C377.93 81.88 377.06 80.08 377.39 78.77C377.64 77.74 380.23 75.5 381.18 75.21ZM250.19 212.94C277.37 226.6 304.56 240.26 331.75 253.93C331.14 254.66 330.88 255.13 329.77 254.94C329.09 254.83 322.36 251.56 321.29 250.99C320.58 250.62 319.62 249.73 318.74 249.97C316.93 250.46 320.22 252.28 319.02 253.25C317.33 254.63 316.9 251.54 314.84 252.57C313.89 253.04 314.19 254.14 313.71 254.95C313.18 255.83 311.75 256.27 310.91 256.75C311.89 257.56 315.19 258.11 315.36 258.38C315.95 259.27 311.85 261.29 310.96 261.71C310.19 262.07 308.65 261.87 308.07 262.47C307.32 263.25 308.23 264.18 307.65 264.8C306.77 265.72 304.33 265.38 303.31 266.13C302.47 266.75 302.2 268.59 301.67 269.45C301.35 269.97 300.52 270.05 300.39 270.68C300.29 271.13 300.53 271.6 300.79 271.95C301.83 273.35 303.9 271.33 305.05 270.77C306.43 270.09 307.67 269.79 309.1 269.28C311.61 268.38 315.84 263.3 318.2 266.55C314.98 269.02 310.35 270.68 306.6 272.33C301.17 274.72 295.89 277.41 290.52 279.93C279.64 285.03 268.83 290.44 258.08 295.8C248.78 300.45 239.21 304.55 229.9 309.16C222.97 312.59 215.75 315.57 208.95 319.21C207.86 319.8 202.7 322.58 201.76 321.97C200.86 321.4 201.92 318.62 202.05 317.75C202.72 313.06 204.1 308.42 204.98 303.75C207 293 209.61 282.37 211.84 271.67C213.16 265.29 214.5 258.9 215.77 252.51C216.3 249.87 216.63 247.05 217.47 244.5C217.9 244.98 218.32 245.46 218.75 245.95C218.92 244.57 218.99 242.05 219.69 240.84C220 240.3 220.62 240.35 220.89 239.69C221.33 238.62 221.42 237.25 221.79 236.12C222.07 235.29 222.58 232.69 223.84 232.57C224.56 232.5 225.58 234.07 227.15 233.33C227.2 233.3 232.96 227.62 233.16 227.35C233.75 226.52 233.3 225.24 233.51 224.27C233.88 222.64 236.21 219.19 237.79 218.69C239.43 218.18 240.36 220.88 242.09 219.78C242.69 219.4 242.57 218.16 243.43 217.69C244.72 216.99 246.49 217.67 247.68 216.91C248.43 216.43 248.06 215.44 248.4 214.78C248.77 214.06 249.69 213.65 250.19 212.94ZM206.63 256.09C205.47 261.11 204.74 266.2 203.7 271.25C201.11 283.89 198.38 296.51 195.82 309.15C191.97 328.17 187.3 347.13 183.96 366.28C182 377.53 179.45 388.61 177.11 399.75C176.59 402.24 175.52 410.5 174.22 412C173.82 411.57 173.46 411.35 173.35 410.73C173.09 409.2 174.05 407.2 174.35 405.72C174.72 403.9 174.69 402.08 174.79 400.25C174.84 399.44 175.52 396.52 174.27 396.36C173.04 396.2 171.54 398.71 172.16 399.74C172.57 400.42 173.56 399.93 173.84 400.77C174 401.26 174.14 402.65 173.62 403C172.78 403.57 172.47 402.37 171.74 402.21C171.34 402.12 170.81 402.8 170.41 402.55C169.86 402.19 170.38 400.8 169.97 400.26C169.37 399.46 164.86 399.7 164.29 400.51C162.97 402.38 167.62 401.85 167.98 402.33C168.81 403.43 167.48 404.59 167.14 405.31C166.06 407.63 166.54 410.53 164.75 412.5C163.49 410.78 164.39 405.68 161.25 406C158.98 406.23 160.23 410.14 159.32 411.61C159.06 412.03 158.42 411.93 158.09 412.31C157.74 412.69 157.89 413.29 157.45 413.67C157.14 413.93 156.6 413.83 156.31 414.09C155.92 414.43 156.02 415.03 155.61 415.32C154.78 415.9 153.16 415.51 152.31 416.16C151.25 416.97 151.9 418.68 151.32 419.61C151.06 420.03 150.42 419.93 150.09 420.31C149.74 420.69 149.89 421.29 149.45 421.67C149.14 421.93 148.6 421.83 148.31 422.09C147.93 422.42 148.03 423.06 147.61 423.32C146.77 423.84 145.19 423.29 144.37 424.09C143.48 424.95 143.96 426.68 143.32 427.61C143.07 427.97 142.59 427.8 142.32 428.08C141.92 428.48 142.02 429.04 141.67 429.45C141.29 429.89 140.69 429.74 140.31 430.09C139.72 430.61 138.68 432.95 139.11 433.74C140.07 435.49 143.83 433.07 143.92 436.25C143.94 436.72 143.95 437.41 143.51 437.71C142.54 438.39 140.74 436.7 140.2 436.03C139.4 435.03 138.76 433.46 137.25 433.32C136.73 433.28 136.31 433.74 135.77 433.66C134.53 433.49 134.38 431.68 132.95 432.65C132.55 432.93 132.49 433.6 132.24 433.98C130.45 436.69 133.92 435.76 135.1 438.17C135.48 438.96 136.51 441.85 135.71 442.24C135.37 442.41 134.62 441.94 134.25 441.93C133.07 441.89 132.14 442.52 131.45 441.25C131.24 440.87 131.54 440.58 131.24 440.21C130.71 439.59 129.35 439.65 129.05 438.67C128.87 438.08 129.42 437.71 129.13 437.1C128.61 436 126.51 434.5 125.59 436.01C125.1 436.82 127.08 438.51 127.52 439.26C128.1 440.25 128.13 441.45 128.9 442.36C130.48 444.21 134.04 444.16 133.33 448.08C128.01 446.23 121.91 433.55 119.03 428.68C113.06 418.54 107.39 408.21 101.48 398.05C97.67 391.49 93.69 384.95 89.83 378.4C88.43 376.01 86.85 373.68 85.8 371.12C85.91 370.7 85.99 369.73 86.22 369.39C86.91 368.4 89.63 368.61 90.36 369.35C91.87 370.88 87.89 376.68 92.94 374.26C93.39 374.04 93.97 374.02 94.25 373.53C94.59 372.96 94.64 370.63 94.09 370.15C93.33 369.51 92.59 370.37 92.01 370.02C91.29 369.58 91.44 367.57 91.28 366.87C90.9 365.3 87.46 359.92 89.34 358.54C89.86 358.15 90.38 358.66 90.89 358.74C91.11 358.78 91.96 358.63 92.12 358.79C93.08 359.68 92.67 366.28 95.64 365.36C97.35 364.83 96.55 362.56 97.51 361.73C97.99 361.32 98.65 361.6 99.15 361.33C100.11 360.8 103.06 357.23 103.97 356.22C104.31 355.85 105.13 355.57 105.33 355.15C105.7 354.36 105.1 353.13 105.61 352.39C106.7 350.8 109.48 352.04 110.81 350.62C111.99 349.35 110.88 346.64 112.39 345.61C113.13 345.1 114.36 345.7 115.15 345.33C115.27 345.27 119.16 341.79 119.33 341.59C119.53 341.37 119.55 340.78 119.73 340.49C120.1 339.91 121.07 339.69 121.33 339.15C121.74 338.28 121.04 336.92 121.8 336.21C123.23 334.87 125.43 336.1 126.81 334.62C128.05 333.29 126.94 331.15 128.21 329.8C128.92 329.04 130.28 329.74 131.15 329.33C131.69 329.07 131.91 328.1 132.49 327.73C132.78 327.55 133.37 327.53 133.59 327.33C133.79 327.16 137.27 323.27 137.33 323.15C137.7 322.36 137.1 321.13 137.61 320.39C138.7 318.8 141.48 320.04 142.81 318.62C144.05 317.29 142.94 315.15 144.21 313.8C144.92 313.04 146.28 313.74 147.15 313.33C147.62 313.1 148.91 311.6 149.35 311.16C149.85 310.65 153.2 307.42 153.33 307.15C153.74 306.28 153.04 304.92 153.8 304.21C155.22 302.88 157.63 304.2 158.95 303.28C160.54 302.17 158.52 299.33 160.22 297.97C161.17 297.21 162.16 297.8 163.15 297.33C163.21 297.3 168.96 291.63 169.16 291.35C169.78 290.47 169 288.96 169.8 288.21C171.22 286.88 173.63 288.2 174.95 287.28C176.36 286.29 174.86 283.61 175.97 282.22C176.89 281.07 178.03 281.86 179.15 281.33C179.21 281.3 184.96 275.63 185.16 275.35C185.93 274.25 184.95 272.53 186.49 271.73C187.54 271.19 189.25 271.96 190.15 271.33C191.29 270.52 189.41 265.47 191.35 264.53C195.92 262.31 193.76 268.32 194.25 270.11C194.48 270.93 196.37 271.92 197.21 271.41C198.22 270.8 197.97 266.83 198.05 265.75C198.27 262.63 200.51 259.93 200.67 256.75C200.73 255.42 200.15 254 200.18 252.69C200.19 251.81 202.13 248.94 203.21 249.53C205.05 250.54 202.14 253.72 203.14 254.99C203.27 255.17 205.83 255.55 206.63 256.09ZM294.33 287.26C294.59 287.64 295.03 287.61 294.96 288.19C294.9 288.74 293.6 289.14 293.23 289.48C292.43 290.21 291.89 291.1 290.88 291.63C289.42 292.38 287.53 292.58 286.24 293.65C285.91 293.93 285.88 294.49 285.55 294.67C284.07 295.47 282.14 294.1 280.6 295.37C280.21 295.69 278.37 297.29 278.35 297.76C278.31 298.58 279.85 299.1 278.66 299.85C277.78 300.4 274.29 298.84 273.25 298.84C271.56 298.83 270.16 300.96 269.01 301.75C267.92 302.51 266.45 302.7 265.31 303.58C263.08 305.3 261.63 307.52 258.86 308.65C258.21 308.91 257.43 309.4 256.73 309.46C255.86 309.52 254.04 308.58 253.62 309.81C253.48 310.23 253.65 311.64 254 311.91C254.33 312.15 255.29 311.89 255.7 311.96C256.62 312.13 257.23 312.87 258 313.25C260.43 314.43 260.66 314.38 258.55 316.31C258.13 316.7 257.91 317.51 257.24 317.55C255.48 317.66 256.55 315.22 255.46 314.35C254.67 313.72 253.77 314.24 253.01 313.88C252.66 313.71 252.58 313.2 252.28 312.99C251.02 312.09 249.61 312.67 248.41 313.25C249.04 313.62 249.96 314.44 250.76 314.47C251.31 314.5 252.46 313.66 252.88 314.28C253.24 314.8 252.9 315.98 253.2 316.63C253.51 317.28 255.13 317.87 254.98 318.75C254.75 320.12 249.55 320.44 248.57 320.84C247.08 321.44 247.91 322.89 247.12 323.8C246.9 324.06 246.36 323.99 246.09 324.31C245.74 324.69 245.89 325.29 245.45 325.67C245.04 326.02 244.48 325.92 244.08 326.32C243.8 326.59 243.98 327.08 243.61 327.32C242.47 328.03 241.54 327.5 240.48 328.72C239.7 329.63 239.9 330.77 239.32 331.61C239.03 332.02 238.43 331.92 238.09 332.31C237.83 332.6 237.93 333.14 237.67 333.45C237.29 333.89 236.69 333.74 236.31 334.09C235.92 334.43 236.02 335.03 235.61 335.32C234.68 335.96 232.95 335.48 232.09 336.37C231.29 337.19 231.84 338.77 231.32 339.61C231.06 340.03 230.42 339.93 230.09 340.31C229.74 340.69 229.89 341.29 229.45 341.67C229.04 342.02 228.46 341.89 228.09 342.31C227.74 342.69 227.94 343.34 227.45 343.67C226.6 344.25 225.21 343.43 224.37 344.09C223.56 344.72 224.12 346.3 223.8 347.14C223.47 347.98 222.61 347.72 222.09 348.31C221.74 348.69 221.89 349.29 221.45 349.67C221.14 349.93 220.6 349.83 220.31 350.09C219.92 350.43 220.02 351.03 219.61 351.32C218.68 351.96 216.95 351.48 216.09 352.37C215.29 353.19 215.84 354.77 215.32 355.61C215.06 356.03 214.42 355.93 214.09 356.31C213.74 356.69 213.89 357.29 213.45 357.67C213.14 357.93 212.6 357.83 212.31 358.09C211.93 358.42 212.03 359.06 211.61 359.32C210.78 359.84 209.17 359.28 208.37 360.09C207.93 360.53 208.15 361.18 207.82 361.64C207.36 362.27 206.38 361.99 206.05 362.84C205.47 364.34 207.54 367.15 204.13 368.25C201.43 369.11 202.49 365.1 202.36 363.78C202.25 362.68 201.75 361.8 201.25 360.85C198.99 362.94 200.09 366.37 199.79 369.15C199.74 369.61 199.47 370.6 199.21 370.98C198.49 372.07 196.98 372.81 196.23 374C196.01 374.36 195.96 375.1 195.61 375.32C194.31 376.13 191.68 375.58 190.41 375C190.53 372 191.73 369.01 192.15 366C193.29 358.06 195.37 350.12 197.01 342.25C197.58 339.51 198.02 336.73 198.73 334.03C198.92 333.31 198.9 331.82 199.54 331.33C200.37 330.68 201.75 331.12 202.74 330.94C204.13 330.7 206.2 329.62 207.46 328.98C216.21 324.46 225.24 320.17 234.21 315.95C247.57 309.64 260.81 303.28 274.09 296.81C279.71 294.07 288.67 288.74 294.33 287.26Z" fill="#901a61" fill-rule="evenodd" stroke="#901a61" stroke-width="0.25" stroke-linejoin="round"/>
<path d="M423.63 148.22C439.42 175.3 455.21 202.38 471 229.46C470.05 229.27 468.1 227.99 467.67 227.15C467.22 226.28 467.65 225.23 466.99 224.33C466.08 223.09 465.01 222.39 464.34 220.96C463.96 220.16 463.94 218.19 462.69 218.01C461.33 217.81 461.95 219.43 461.35 220.11C460.62 220.93 459.01 219.67 458.06 220.35C456.68 221.35 457.56 225.48 454.78 224.58C452.89 223.96 454.72 217.4 452.42 218.74C451.65 219.18 450.02 223.2 450.18 224.19C450.32 225.05 451.54 225.8 450.98 226.74C450.47 227.59 448.68 227.23 447.97 228.24C447.25 229.28 446.78 231.2 445.74 231.98C445.37 232.25 444.8 232.11 444.41 232.31C443.16 232.94 441.15 234.91 440.51 236.15C440.03 237.08 440.17 238.7 439.25 239.45C438.35 240.18 436.91 239.64 435.96 240.25C435.07 240.82 435.53 242.06 434.98 242.74C434.34 243.53 432.86 243.01 432.25 243.96C431.64 244.91 432.18 246.35 431.45 247.25C430.73 248.14 429.31 247.91 428.41 248.31C427.19 248.84 425.11 250.98 424.51 252.15C424.03 253.08 424.17 254.7 423.25 255.45C422.35 256.18 420.91 255.64 419.96 256.25C419.07 256.82 419.53 258.06 418.98 258.74C418.25 259.64 416.62 259 416.06 260.3C415.64 261.26 416.13 262.66 415.25 263.45C414.48 264.14 413.25 263.93 412.41 264.31C411.96 264.5 411.26 265.25 410.85 265.58C410.01 266.24 408.77 267.49 408.31 268.41C408.11 268.8 408.25 269.37 407.98 269.74C407.1 270.91 405.01 271.24 403.96 272.23C403.16 272.97 403.51 274.35 402.74 274.98C402.04 275.54 400.94 275.19 400.23 275.96C399.26 276.98 398.97 278.76 397.98 279.74C397.44 280.27 395.51 281.01 394.58 281.82C393.85 282.46 392.73 283.57 392.31 284.41C392.03 284.95 392.21 285.51 391.74 285.98C390.76 286.97 388.98 287.26 387.96 288.23C387.19 288.94 387.54 290.04 386.98 290.74C386.28 291.6 384.76 291.22 383.98 292.29C383.25 293.3 382.76 295.22 381.74 295.98C380.91 296.6 379.89 296.32 379.28 297.44C379.08 297.81 379.26 298.39 378.98 298.74C378.54 299.26 377.78 299.12 377.25 299.44C376.25 300.04 376.56 300.96 375.98 301.74C375.22 302.76 373.3 303.25 372.29 303.98C371.22 304.76 371.6 306.28 370.74 306.98C370.04 307.54 368.94 307.19 368.23 307.96C367.26 308.98 366.97 310.76 365.98 311.74C365.42 312.3 363.38 313.05 362.32 314.07C361.69 314.68 360.69 315.66 360.31 316.41C360.03 316.95 360.21 317.51 359.74 317.98C358.76 318.97 356.98 319.26 355.96 320.23C355.16 320.97 355.51 322.35 354.74 322.98C354.06 323.53 352.82 323.07 352.25 323.96C351.6 324.97 352.21 326.59 351.25 327.45C350.48 328.14 349.25 327.93 348.41 328.31C347.6 328.66 346.42 329.89 345.82 330.58C345.41 331.05 344.54 331.87 344.31 332.41C343.91 333.31 344.14 334.73 343.25 335.45C342.35 336.18 340.91 335.64 339.96 336.25C339.01 336.86 339.53 338.34 338.74 338.98C338.06 339.53 336.82 339.07 336.25 339.96C335.64 340.91 336.18 342.35 335.45 343.25C334.73 344.14 333.31 343.91 332.41 344.31C331.6 344.66 330.42 345.89 329.82 346.58C329.41 347.05 328.54 347.87 328.31 348.41C327.93 349.25 328.14 350.48 327.45 351.25C326.59 352.21 324.97 351.6 323.96 352.25C323.07 352.82 323.53 354.06 322.98 354.74C322.35 355.51 320.97 355.16 320.23 355.96C319.26 356.98 318.97 358.76 317.98 359.74C317.51 360.21 316.95 360.03 316.41 360.31C315.66 360.69 314.68 361.69 314.07 362.32C313.05 363.38 312.3 365.42 311.74 365.98C310.76 366.97 308.98 367.26 307.96 368.23C307.19 368.94 307.54 370.04 306.98 370.74C306.28 371.6 304.76 371.22 303.98 372.29C303.25 373.3 302.76 375.22 301.74 375.98C300.91 376.6 299.89 376.32 299.28 377.44C299.08 377.81 299.26 378.39 298.98 378.74C298.54 379.26 297.78 379.12 297.25 379.44C296.25 380.04 296.56 380.96 295.98 381.74C295.22 382.76 293.3 383.25 292.29 383.98C291.22 384.76 291.6 386.28 290.74 386.98C290.04 387.54 288.94 387.19 288.23 387.96C287.26 388.98 286.97 390.76 285.98 391.74C285.51 392.21 284.95 392.03 284.41 392.31C283.66 392.69 282.68 393.69 282.07 394.32C281.05 395.38 280.3 397.42 279.74 397.98C278.76 398.97 276.98 399.26 275.96 400.23C275.16 400.97 275.51 402.35 274.74 402.98C274.06 403.53 272.82 403.07 272.25 403.96C271.6 404.97 272.21 406.59 271.25 407.45C270.43 408.18 269.04 408.05 268.15 408.51C266.91 409.15 264.94 411.16 264.31 412.41C264.11 412.8 264.25 413.37 263.98 413.74C263.1 414.91 261.01 415.24 259.96 416.23C259.16 416.97 259.51 418.35 258.74 418.98C258.04 419.54 256.94 419.19 256.23 419.96C255.26 420.98 254.97 422.76 253.98 423.74C253.44 424.27 251.51 425.01 250.58 425.82C249.85 426.46 248.73 427.57 248.31 428.41C248.11 428.8 248.25 429.37 247.98 429.74C247.1 430.91 245.01 431.24 243.96 432.23C243.19 432.94 243.54 434.04 242.98 434.74C242.35 435.51 240.97 435.16 240.23 435.96C239.26 436.98 238.97 438.76 237.98 439.74C237.44 440.27 235.51 441.01 234.58 441.82C233.85 442.46 232.73 443.57 232.31 444.41C232.11 444.8 232.25 445.37 231.98 445.74C231.71 446.1 229.78 447.42 229.32 447.56C228.18 447.91 223.57 446.99 224.38 449.73C224.78 451.1 228.6 450.47 229.75 450.47C233.84 450.45 237.96 450.99 242 450.99C243.78 451 246.02 450.29 247 451.92C238.16 452.51 229.12 451.99 220.25 452.01C201.42 452.04 182.58 452 163.75 452C155.84 452 139.16 453.93 133.33 448.08C134.04 444.16 130.48 444.21 128.9 442.36C128.13 441.45 128.1 440.25 127.52 439.26C127.08 438.51 125.1 436.82 125.59 436.01C126.51 434.5 128.61 436 129.13 437.1C129.42 437.71 128.87 438.08 129.05 438.67C129.35 439.65 130.71 439.59 131.24 440.21C131.54 440.58 131.24 440.87 131.45 441.25C132.14 442.52 133.07 441.89 134.25 441.93C134.62 441.94 135.37 442.41 135.71 442.24C136.51 441.85 135.48 438.96 135.1 438.17C133.92 435.76 130.45 436.69 132.24 433.98C132.49 433.6 132.55 432.93 132.95 432.65C134.38 431.68 134.53 433.49 135.77 433.66C136.31 433.74 136.73 433.28 137.25 433.32C138.76 433.46 139.4 435.03 140.2 436.03C140.74 436.7 142.54 438.39 143.51 437.71C143.95 437.41 143.94 436.72 143.92 436.25C143.83 433.07 140.07 435.49 139.11 433.74C138.68 432.95 139.72 430.61 140.31 430.09C140.69 429.74 141.29 429.89 141.67 429.45C142.02 429.04 141.92 428.48 142.32 428.08C142.59 427.8 143.07 427.97 143.32 427.61C143.96 426.68 143.48 424.95 144.37 424.09C145.19 423.29 146.77 423.84 147.61 423.32C148.03 423.06 147.93 422.42 148.31 422.09C148.6 421.83 149.14 421.93 149.45 421.67C149.89 421.29 149.74 420.69 150.09 420.31C150.42 419.93 151.06 420.03 151.32 419.61C151.9 418.68 151.25 416.97 152.31 416.16C153.16 415.51 154.78 415.9 155.61 415.32C156.02 415.03 155.92 414.43 156.31 414.09C156.6 413.83 157.14 413.93 157.45 413.67C157.89 413.29 157.74 412.69 158.09 412.31C158.42 411.93 159.06 412.03 159.32 411.61C160.23 410.14 158.98 406.23 161.25 406C164.39 405.68 163.49 410.78 164.75 412.5C166.54 410.53 166.06 407.63 167.14 405.31C167.48 404.59 168.81 403.43 167.98 402.33C167.62 401.85 162.97 402.38 164.29 400.51C164.86 399.7 169.37 399.46 169.97 400.26C170.38 400.8 169.86 402.19 170.41 402.55C170.81 402.8 171.34 402.12 171.74 402.21C172.47 402.37 172.78 403.57 173.62 403C174.14 402.65 174 401.26 173.84 400.77C173.56 399.93 172.57 400.42 172.16 399.74C171.54 398.71 173.04 396.2 174.27 396.36C175.52 396.52 174.84 399.44 174.79 400.25C174.69 402.08 174.72 403.9 174.35 405.72C174.05 407.2 173.09 409.2 173.35 410.73C173.46 411.35 173.82 411.57 174.22 412C174.01 416.86 170.95 423.07 171.87 427.75C172.56 431.29 178.2 430.99 179.47 427.95C180.08 426.5 179.98 424.65 180.29 423.11C180.87 420.16 181.58 417.25 182.16 414.31C183.84 405.77 185.92 397.32 187.56 388.77C188.42 384.26 188.97 379.36 190.41 375C191.68 375.58 194.31 376.13 195.61 375.32C195.96 375.1 196.01 374.36 196.23 374C196.98 372.81 198.49 372.07 199.21 370.98C199.47 370.6 199.74 369.61 199.79 369.15C200.09 366.37 198.99 362.94 201.25 360.85C201.75 361.8 202.25 362.68 202.36 363.78C202.49 365.1 201.43 369.11 204.13 368.25C207.54 367.15 205.47 364.34 206.05 362.84C206.38 361.99 207.36 362.27 207.82 361.64C208.15 361.18 207.93 360.53 208.37 360.09C209.17 359.28 210.78 359.84 211.61 359.32C212.03 359.06 211.93 358.42 212.31 358.09C212.6 357.83 213.14 357.93 213.45 357.67C213.89 357.29 213.74 356.69 214.09 356.31C214.42 355.93 215.06 356.03 215.32 355.61C215.84 354.77 215.29 353.19 216.09 352.37C216.95 351.48 218.68 351.96 219.61 351.32C220.02 351.03 219.92 350.43 220.31 350.09C220.6 349.83 221.14 349.93 221.45 349.67C221.89 349.29 221.74 348.69 222.09 348.31C222.61 347.72 223.47 347.98 223.8 347.14C224.12 346.3 223.56 344.72 224.37 344.09C225.21 343.43 226.6 344.25 227.45 343.67C227.94 343.34 227.74 342.69 228.09 342.31C228.46 341.89 229.04 342.02 229.45 341.67C229.89 341.29 229.74 340.69 230.09 340.31C230.42 339.93 231.06 340.03 231.32 339.61C231.84 338.77 231.29 337.19 232.09 336.37C232.95 335.48 234.68 335.96 235.61 335.32C236.02 335.03 235.92 334.43 236.31 334.09C236.69 333.74 237.29 333.89 237.67 333.45C237.93 333.14 237.83 332.6 238.09 332.31C238.43 331.92 239.03 332.02 239.32 331.61C239.9 330.77 239.7 329.63 240.48 328.72C241.54 327.5 242.47 328.03 243.61 327.32C243.98 327.08 243.8 326.59 244.08 326.32C244.48 325.92 245.04 326.02 245.45 325.67C245.89 325.29 245.74 324.69 246.09 324.31C246.36 323.99 246.9 324.06 247.12 323.8C247.91 322.89 247.08 321.44 248.57 320.84C249.55 320.44 254.75 320.12 254.98 318.75C255.13 317.87 253.51 317.28 253.2 316.63C252.9 315.98 253.24 314.8 252.88 314.28C252.46 313.66 251.31 314.5 250.76 314.47C249.96 314.44 249.04 313.62 248.41 313.25C249.61 312.67 251.02 312.09 252.28 312.99C252.58 313.2 252.66 313.71 253.01 313.88C253.77 314.24 254.67 313.72 255.46 314.35C256.55 315.22 255.48 317.66 257.24 317.55C257.91 317.51 258.13 316.7 258.55 316.31C260.66 314.38 260.43 314.43 258 313.25C257.23 312.87 256.62 312.13 255.7 311.96C255.29 311.89 254.33 312.15 254 311.91C253.65 311.64 253.48 310.23 253.62 309.81C254.04 308.58 255.86 309.52 256.73 309.46C257.43 309.4 258.21 308.91 258.86 308.65C261.63 307.52 263.08 305.3 265.31 303.58C266.45 302.7 267.92 302.51 269.01 301.75C270.16 300.96 271.56 298.83 273.25 298.84C274.29 298.84 277.78 300.4 278.66 299.85C279.85 299.1 278.31 298.58 278.35 297.76C278.37 297.29 280.21 295.69 280.6 295.37C282.14 294.1 284.07 295.47 285.55 294.67C285.88 294.49 285.91 293.93 286.24 293.65C287.53 292.58 289.42 292.38 290.88 291.63C291.89 291.1 292.43 290.21 293.23 289.48C293.6 289.14 294.9 288.74 294.96 288.19C295.03 287.61 294.59 287.64 294.33 287.26C300.1 283.5 307.3 280.82 313.63 277.86C324.57 272.74 335.29 267.01 346.32 262.09C350.77 260.1 355.26 258.02 359.62 255.84C361.13 255.08 363.04 253.61 362.99 251.75C362.82 245.06 355.6 248.77 352.5 250.27C345.51 253.62 338.54 256.98 331.52 260.28C327.18 262.32 322.81 265.21 318.2 266.55C315.84 263.3 311.61 268.38 309.1 269.28C307.67 269.79 306.43 270.09 305.05 270.77C303.9 271.33 301.83 273.35 300.79 271.95C300.53 271.6 300.29 271.13 300.39 270.68C300.52 270.05 301.35 269.97 301.67 269.45C302.2 268.59 302.47 266.75 303.31 266.13C304.33 265.38 306.77 265.72 307.65 264.8C308.23 264.18 307.32 263.25 308.07 262.47C308.65 261.87 310.19 262.07 310.96 261.71C311.85 261.29 315.95 259.27 315.36 258.38C315.19 258.11 311.89 257.56 310.91 256.75C311.75 256.27 313.18 255.83 313.71 254.95C314.19 254.14 313.89 253.04 314.84 252.57C316.9 251.54 317.33 254.63 319.02 253.25C320.22 252.28 316.93 250.46 318.74 249.97C319.62 249.73 320.58 250.62 321.29 250.99C322.36 251.56 329.09 254.83 329.77 254.94C330.88 255.13 331.14 254.66 331.75 253.93C334.99 253.68 336.38 251.68 336.42 248.5C337.26 249.01 339.46 251.55 339.83 249.23C340.07 247.7 334.49 245.28 333.62 244.12C333.47 243.91 332.55 242.53 332.56 242.31C332.59 241.15 334.77 241.07 333.87 239.94C332.14 237.77 330.36 242.01 328.14 241.18C327.92 241.1 327.21 240.93 327.1 240.71C326.59 239.69 328.1 238.93 328.38 237.73C328.49 237.27 328.31 236.49 328.79 236.19C330.59 235.07 334.6 237.47 334.98 237.21C336.11 236.44 336.19 233.59 336.74 232.49C337.27 231.41 338.32 231.77 339.14 231.32C340.21 230.73 340.87 228.93 342 228.23C342.49 227.93 343.34 227.95 343.67 227.45C344.24 226.59 343.43 225.21 344.09 224.37C344.72 223.56 346.3 224.12 347.14 223.8C347.98 223.47 347.72 222.61 348.31 222.09C348.69 221.74 349.29 221.89 349.67 221.45C349.93 221.14 349.83 220.6 350.09 220.31C350.43 219.92 351.03 220.02 351.32 219.61C351.96 218.68 351.48 216.95 352.37 216.09C353.19 215.29 354.77 215.84 355.61 215.32C356.03 215.06 355.93 214.42 356.31 214.09C356.69 213.74 357.29 213.89 357.67 213.45C357.93 213.14 357.83 212.6 358.09 212.31C358.42 211.93 359.06 212.03 359.32 211.61C359.84 210.77 359.29 209.19 360.09 208.37C360.95 207.48 362.68 207.96 363.61 207.32C364.02 207.03 363.92 206.43 364.31 206.09C364.6 205.83 365.14 205.93 365.45 205.67C365.89 205.29 365.74 204.69 366.09 204.31C366.43 203.92 367.03 204.02 367.32 203.61C367.96 202.68 367.48 200.95 368.37 200.09C369.19 199.29 370.77 199.84 371.61 199.32C372.03 199.06 371.93 198.42 372.31 198.09C372.69 197.74 373.29 197.89 373.67 197.45C373.93 197.14 373.83 196.6 374.09 196.31C374.42 195.93 375.06 196.03 375.32 195.61C375.84 194.77 375.29 193.19 376.09 192.37C376.95 191.48 378.68 191.96 379.61 191.32C380.02 191.03 379.92 190.43 380.31 190.09C380.6 189.83 381.14 189.93 381.45 189.67C381.89 189.29 381.74 188.69 382.09 188.31C382.43 187.92 383.03 188.02 383.32 187.61C383.9 186.78 383.51 185.16 384.16 184.31C384.97 183.25 386.68 183.9 387.61 183.32C388.03 183.06 387.93 182.42 388.31 182.09C388.69 181.74 389.29 181.89 389.67 181.45C389.93 181.14 389.83 180.6 390.09 180.31C390.42 179.93 391.06 180.03 391.32 179.61C391.9 178.68 391.25 176.97 392.31 176.16C393.16 175.51 394.78 175.9 395.61 175.32C396.02 175.03 395.92 174.43 396.31 174.09C396.6 173.83 397.14 173.93 397.45 173.67C397.89 173.29 397.74 172.69 398.09 172.31C398.43 171.92 399.03 172.02 399.32 171.61C399.96 170.68 399.48 168.95 400.37 168.09C401.19 167.29 402.77 167.84 403.61 167.32C404.03 167.06 403.93 166.42 404.31 166.09C404.69 165.74 405.29 165.89 405.67 165.45C405.93 165.14 405.83 164.6 406.09 164.31C406.42 163.93 407.06 164.03 407.32 163.61C407.9 162.68 407.25 160.97 408.31 160.16C409.16 159.51 410.78 159.9 411.61 159.32C412.02 159.03 411.92 158.43 412.31 158.09C412.69 157.74 413.29 157.89 413.67 157.45C414.01 157.04 413.86 156.44 414.31 156.09C414.73 155.75 415.76 156.01 416.08 155.61C417.39 153.92 414.71 152.65 415.15 150.84C415.49 149.45 417.31 148.88 418.03 147.74C418.69 146.68 418.57 145.59 419.25 144.57C420.43 145.97 420.35 148.17 418.73 149.52C418.43 149.78 417.69 149.95 417.54 150.32C416.96 151.68 418.85 153 419.45 153.81C419.98 154.52 419.83 156.09 420.77 156.41C422.34 156.95 424.65 154.41 423.02 153.22C422.07 152.52 421.69 154.05 420.7 153.61C418.47 152.61 421.86 148.78 423.63 148.22Z" fill="#ad1f54" fill-rule="evenodd" stroke="#ad1f54" stroke-width="0.25" stroke-linejoin="round"/>
<path d="M143.5 50.9C191.33 50.86 239.17 50.83 287 50.8C293.83 50.85 300.67 50.9 307.5 50.96C307.2 51.8 307.2 51.69 307.75 52C303.43 52.4 299.07 52.12 294.75 52.55C293.94 52.63 291.2 52.14 290.71 52.93C289.86 54.3 291.74 53.92 292.2 54.33C292.37 54.48 292.13 54.83 292.25 55.04C288.63 54.52 289.49 56.55 287.65 57.18C285.89 57.77 283.54 57.14 281.71 57.65C281.32 57.76 280.27 58.77 280.31 59.26C280.44 60.71 286.24 59.47 287.87 61.25C285.27 62.75 280.04 61.62 278.46 62.76C277.64 63.35 278.17 64.34 277.89 65.13C277.57 66.07 276.71 65.85 276.27 66.43C276.04 66.75 276.21 67.35 275.94 67.7C275.25 68.57 272.52 69.67 271.87 70.58C271.32 71.34 271.86 72.51 271.37 73.23C270.88 73.96 269.06 73.64 268.43 74.27C268.05 74.66 268.3 75.32 267.97 75.74C267.57 76.25 266.79 76.08 266.32 76.55C265.63 77.24 265.86 78.46 265.43 79.23C265.2 79.64 264.63 79.68 264.37 80.11C263.87 80.98 264.06 82.34 263.43 83.23C262.73 84.24 258.88 87.89 257.73 88.06C257.22 88.13 255.65 87.31 255.4 87.49C254.89 87.84 254.89 91.17 253.18 91.55C252.05 91.8 252.45 90.57 251.66 90.39C250.94 90.22 251.41 90.72 250.66 90.75C251.38 92.38 252.42 94.05 251.05 95.77C250.53 96.43 249.59 96.54 249.25 97.45C248.93 98.33 248.88 99.34 248.59 100.25C248.22 99.83 247.85 99.42 247.48 99C248.68 90.5 250.77 81.91 252.74 73.55C253.5 70.35 252.91 66.51 248.75 66.79C244.21 67.08 244.42 74.59 243.66 77.85C241.74 86.02 240.44 94.38 238.41 102.5C237.58 105.8 237.78 109.78 236.07 112.72C235.27 111.28 236.51 111.6 236.38 110.34C236.35 110.09 235.79 109.87 235.65 109.64C235.05 108.62 234.94 107.4 234.25 106.46C232.95 107.94 234.39 110.3 233.61 110.87C232.44 111.71 231.58 109.52 230.77 110.89C229.86 112.42 230.94 115.01 230.44 116.69C230.17 117.59 229.35 117.43 228.85 118.01C228.47 118.45 228.64 119.18 228.15 119.55C227.37 120.13 225.72 119.63 224.88 120.27C224.32 120.71 224.6 121.38 223.74 121.7C222.81 122.05 221.29 121.41 220.43 122.27C220.05 122.66 220.3 123.32 219.97 123.74C219.57 124.25 218.79 124.08 218.32 124.55C217.64 125.23 217.91 126.46 217.43 127.18C216.89 128.01 215.35 128.03 214.84 129.07C214.5 129.75 214.75 130.49 214.5 131.19C214.22 131.97 212.48 133.54 211.81 134.06C210.93 134.76 210.01 134.37 209.07 134.84C208.03 135.35 208.01 136.89 207.18 137.43C206.51 137.88 205.03 137.67 204.43 138.27C204.05 138.66 204.3 139.32 203.97 139.74C203.57 140.25 202.79 140.08 202.32 140.55C201.58 141.28 201.9 142.68 201.24 143.38C200.6 144.08 199.28 143.79 198.58 144.35C198.05 144.77 198.15 145.51 197.67 145.94C197.3 146.28 196.7 146.15 196.34 146.58C195.99 146.99 196.15 147.58 195.7 147.94C195.34 148.22 194.75 148.04 194.43 148.27C194.04 148.55 194.12 149.08 193.74 149.4C193.18 149.89 192.3 149.79 191.87 150.58C191.44 151.36 191.83 152.55 191.37 153.23C190.88 153.96 189.06 153.64 188.43 154.27C188.05 154.66 188.3 155.32 187.97 155.74C187.56 156.26 186.76 156 186.36 156.57C185.86 157.27 186.45 158.37 185.66 158.94C184.69 159.65 183.08 158.68 182.4 160.12C182.14 160.67 182.34 161.17 182.23 161.75C181.51 165.48 182.84 163.01 183.24 165.38C183.35 166.04 182.77 166.48 182.98 167.16C183.62 169.31 185.92 166.79 183.5 169.95C180.33 169.13 177.01 166.75 174.05 165.26C167.81 162.12 161.6 158.98 155.37 155.87C152.46 154.43 147.42 150.6 144.67 154.4C142.06 158.01 146.76 160.51 149.38 161.85C154.57 164.52 159.78 167.18 165.03 169.71C167.43 170.87 170.9 171.91 172.67 173.82C172.62 173.92 172.19 174.02 172.21 174.24C172.24 174.45 172.67 174.47 172.75 174.5C173.75 174.92 174.65 175.56 175.5 176.25C174.1 176.11 172.77 176.76 171.34 176.41C169.52 175.95 168.86 173.62 166.78 174.16C162.83 175.18 167.23 177.15 167.26 177.34C167.38 178.08 166.55 177.94 166.26 178.42C165.97 178.87 166.15 179.54 165.8 180.04C165.12 181.04 163.24 182.83 162.09 183.31C161.64 183.5 160.84 183.46 160.47 183.74C159.71 184.3 160.27 185.41 159.65 185.94C158.9 186.57 157.71 185.94 156.88 186.22C155.97 186.53 156.37 187.48 155.74 187.97C155.39 188.25 154.76 188.03 154.43 188.27C153.68 188.82 153.89 190.47 153.43 191.18C152.91 191.99 151.35 192.16 150.84 193.07C150.47 193.73 150.75 194.49 150.5 195.19C150.25 195.87 148.63 197.4 148.04 197.8C147.55 198.14 146.84 197.96 146.42 198.26C146 198.54 146.15 199.1 145.74 199.41C145.32 199.72 144.65 199.58 144.19 199.93C143.69 200.31 143.67 201.11 143.18 201.43C142.5 201.87 141.03 201.67 140.43 202.27C139.98 202.72 140.25 203.49 139.74 203.96C139.38 204.29 138.72 204.14 138.32 204.55C137.63 205.24 137.86 206.46 137.43 207.23C137.06 207.89 135.99 208.06 135.7 208.88C135.44 209.61 135.74 210.5 135.38 211.23C135.15 211.69 131.94 214.86 131.44 215.2C130.65 215.74 129.73 215.4 128.88 215.7C128.06 215.99 127.89 217.07 127.23 217.43C126.52 217.83 125.03 217.67 124.43 218.27C124.05 218.66 124.3 219.32 123.97 219.74C123.57 220.25 122.79 220.08 122.32 220.55C121.64 221.23 121.9 222.46 121.43 223.18C121.11 223.67 120.31 223.69 119.93 224.19C119.58 224.65 119.72 225.32 119.41 225.74C119.1 226.15 118.54 226 118.26 226.42C117.96 226.84 118.14 227.55 117.8 228.04C117.4 228.63 115.87 230.25 115.19 230.5C114.49 230.75 113.73 230.47 113.07 230.84C112.16 231.35 111.99 232.91 111.18 233.43C110.5 233.87 109.03 233.67 108.43 234.27C108.05 234.66 108.3 235.32 107.97 235.74C107.57 236.25 106.79 236.08 106.32 236.55C105.64 237.23 105.9 238.46 105.43 239.18C105.11 239.67 104.31 239.69 103.93 240.19C103.58 240.65 103.72 241.32 103.41 241.74C103.1 242.15 102.54 242 102.26 242.42C102.04 242.73 102.19 243.33 102.01 243.69C101.66 244.38 100.6 245.24 100.04 245.81C99.12 246.74 96.63 247.42 96.22 247.95C95.77 248.5 96.18 249.49 95.65 249.94C94.72 250.72 93.23 249.67 92.32 250.55C92.13 250.73 90.25 252.81 90.22 252.88C89.95 253.72 90.48 254.91 89.93 255.7C89.52 256.28 88.64 255.94 88.27 256.43C87.78 257.09 87.98 258.46 87.38 259.24C86.37 260.56 84.56 262.37 83.24 263.38C82.46 263.98 81.09 263.78 80.43 264.27C79.94 264.64 80.27 265.52 79.7 265.94C78.77 266.6 77.49 265.78 76.57 266.34C76.09 266.63 76.18 267.18 75.83 267.56C75.31 268.13 74.49 268.08 74.22 268.88C73.97 269.66 74.51 270.96 73.93 271.65C73.19 272.53 71.71 271.46 70.86 271.71C70.11 271.92 69.75 272.95 69.25 273.44C68.21 274.49 64.12 277.77 63.69 278.88C63.43 279.55 63.77 280.64 63.37 281.23C62.88 281.96 61.06 281.64 60.43 282.27C60.05 282.66 60.3 283.32 59.97 283.74C59.56 284.26 58.76 284 58.36 284.57C57.75 285.44 58.66 286.8 57.94 287.65C57.31 288.39 55.82 287.83 55.06 288.81C54.27 289.84 54.87 291.09 53.81 292.06C52.54 293.23 50.35 296.02 48.39 293.96C47.82 293.36 48.14 291.92 47.13 291.6C46.55 291.41 44.63 292.2 44.44 292.82C44.04 294.08 45.46 294.89 45.69 296C45.78 296.44 45.45 296.8 45.65 297.24C46.34 298.81 47.6 297.93 47.85 300.25C46.08 299.26 46.43 298.55 45.24 301C43 299.73 41.67 295.51 40.7 293.34C40.42 292.73 39.77 292.45 39.4 291.9C38.51 290.61 37.84 289.08 37.05 287.72C33.67 281.86 30.34 276.12 26.95 270.26C22.84 263.16 18.53 256.1 20.24 247.46C21.58 240.71 25.5 235.02 28.91 229.15C34.25 219.96 39.59 210.79 44.92 201.66C63.54 169.77 81.99 137.76 100.69 105.95C107.45 94.46 114.66 82.86 120.87 71.12C125.93 61.55 131.87 52.43 143.5 50.9Z" fill="#530d7c" fill-rule="evenodd" stroke="#530d7c" stroke-width="0.25" stroke-linejoin="round"/>
<path d="M471 229.46C472.27 230.99 473.11 232.91 474.14 234.63C478.67 242.26 481.44 249.78 478.94 258.72C477.81 262.75 475.24 266.33 473.19 269.93C470.16 275.24 467.07 280.5 464.02 285.79C441.37 325.06 417.89 364.17 395.4 403.65C389.72 413.6 384.11 423.64 378.17 433.4C374.26 439.82 371.05 446.2 364.04 449.77C359.13 452.27 354.14 451.97 348.75 451.98C341.92 451.99 335.08 451.99 328.25 451.99C310.42 451.99 292.58 452 274.75 452C265.56 452 256.16 452.57 247 451.92C246.02 450.29 243.78 451 242 450.99C237.96 450.99 233.84 450.45 229.75 450.47C228.6 450.47 224.78 451.1 224.38 449.73C223.57 446.99 228.18 447.91 229.32 447.56C229.78 447.42 231.71 446.1 231.98 445.74C232.25 445.37 232.11 444.8 232.31 444.41C232.73 443.57 233.85 442.46 234.58 441.82C235.51 441.01 237.44 440.27 237.98 439.74C238.97 438.76 239.26 436.98 240.23 435.96C240.97 435.16 242.35 435.51 242.98 434.74C243.54 434.04 243.19 432.94 243.96 432.23C245.01 431.24 247.1 430.91 247.98 429.74C248.25 429.37 248.11 428.8 248.31 428.41C248.73 427.57 249.85 426.46 250.58 425.82C251.51 425.01 253.44 424.27 253.98 423.74C254.97 422.76 255.26 420.98 256.23 419.96C256.94 419.19 258.04 419.54 258.74 418.98C259.51 418.35 259.16 416.97 259.96 416.23C261.01 415.24 263.1 414.91 263.98 413.74C264.25 413.37 264.11 412.8 264.31 412.41C264.94 411.16 266.91 409.15 268.15 408.51C269.04 408.05 270.43 408.18 271.25 407.45C272.21 406.59 271.6 404.97 272.25 403.96C272.82 403.07 274.06 403.53 274.74 402.98C275.51 402.35 275.16 400.97 275.96 400.23C276.98 399.26 278.76 398.97 279.74 397.98C280.3 397.42 281.05 395.38 282.07 394.32C282.68 393.69 283.66 392.69 284.41 392.31C284.95 392.03 285.51 392.21 285.98 391.74C286.97 390.76 287.26 388.98 288.23 387.96C288.94 387.19 290.04 387.54 290.74 386.98C291.6 386.28 291.22 384.76 292.29 383.98C293.3 383.25 295.22 382.76 295.98 381.74C296.56 380.96 296.25 380.04 297.25 379.44C297.78 379.12 298.54 379.26 298.98 378.74C299.26 378.39 299.08 377.81 299.28 377.44C299.89 376.32 300.91 376.6 301.74 375.98C302.76 375.22 303.25 373.3 303.98 372.29C304.76 371.22 306.28 371.6 306.98 370.74C307.54 370.04 307.19 368.94 307.96 368.23C308.98 367.26 310.76 366.97 311.74 365.98C312.3 365.42 313.05 363.38 314.07 362.32C314.68 361.69 315.66 360.69 316.41 360.31C316.95 360.03 317.51 360.21 317.98 359.74C318.97 358.76 319.26 356.98 320.23 355.96C320.97 355.16 322.35 355.51 322.98 354.74C323.53 354.06 323.07 352.82 323.96 352.25C324.97 351.6 326.59 352.21 327.45 351.25C328.14 350.48 327.93 349.25 328.31 348.41C328.54 347.87 329.41 347.05 329.82 346.58C330.42 345.89 331.6 344.66 332.41 344.31C333.31 343.91 334.73 344.14 335.45 343.25C336.18 342.35 335.64 340.91 336.25 339.96C336.82 339.07 338.06 339.53 338.74 338.98C339.53 338.34 339.01 336.86 339.96 336.25C340.91 335.64 342.35 336.18 343.25 335.45C344.14 334.73 343.91 333.31 344.31 332.41C344.54 331.87 345.41 331.05 345.82 330.58C346.42 329.89 347.6 328.66 348.41 328.31C349.25 327.93 350.48 328.14 351.25 327.45C352.21 326.59 351.6 324.97 352.25 323.96C352.82 323.07 354.06 323.53 354.74 322.98C355.51 322.35 355.16 320.97 355.96 320.23C356.98 319.26 358.76 318.97 359.74 317.98C360.21 317.51 360.03 316.95 360.31 316.41C360.69 315.66 361.69 314.68 362.32 314.07C363.38 313.05 365.42 312.3 365.98 311.74C366.97 310.76 367.26 308.98 368.23 307.96C368.94 307.19 370.04 307.54 370.74 306.98C371.6 306.28 371.22 304.76 372.29 303.98C373.3 303.25 375.22 302.76 375.98 301.74C376.56 300.96 376.25 300.04 377.25 299.44C377.78 299.12 378.54 299.26 378.98 298.74C379.26 298.39 379.08 297.81 379.28 297.44C379.89 296.32 380.91 296.6 381.74 295.98C382.76 295.22 383.25 293.3 383.98 292.29C384.76 291.22 386.28 291.6 386.98 290.74C387.54 290.04 387.19 288.94 387.96 288.23C388.98 287.26 390.76 286.97 391.74 285.98C392.21 285.51 392.03 284.95 392.31 284.41C392.73 283.57 393.85 282.46 394.58 281.82C395.51 281.01 397.44 280.27 397.98 279.74C398.97 278.76 399.26 276.98 400.23 275.96C400.94 275.19 402.04 275.54 402.74 274.98C403.51 274.35 403.16 272.97 403.96 272.23C405.01 271.24 407.1 270.91 407.98 269.74C408.25 269.37 408.11 268.8 408.31 268.41C408.77 267.49 410.01 266.24 410.85 265.58C411.26 265.25 411.96 264.5 412.41 264.31C413.25 263.93 414.48 264.14 415.25 263.45C416.13 262.66 415.64 261.26 416.06 260.3C416.62 259 418.25 259.64 418.98 258.74C419.53 258.06 419.07 256.82 419.96 256.25C420.91 255.64 422.35 256.18 423.25 255.45C424.17 254.7 424.03 253.08 424.51 252.15C425.11 250.98 427.19 248.84 428.41 248.31C429.31 247.91 430.73 248.14 431.45 247.25C432.18 246.35 431.64 244.91 432.25 243.96C432.86 243.01 434.34 243.53 434.98 242.74C435.53 242.06 435.07 240.82 435.96 240.25C436.91 239.64 438.35 240.18 439.25 239.45C440.17 238.7 440.03 237.08 440.51 236.15C441.15 234.91 443.16 232.94 444.41 232.31C444.8 232.11 445.37 232.25 445.74 231.98C446.78 231.2 447.25 229.28 447.97 228.24C448.68 227.23 450.47 227.59 450.98 226.74C451.54 225.8 450.32 225.05 450.18 224.19C450.02 223.2 451.65 219.18 452.42 218.74C454.72 217.4 452.89 223.96 454.78 224.58C457.56 225.48 456.68 221.35 458.06 220.35C459.01 219.67 460.62 220.93 461.35 220.11C461.95 219.43 461.33 217.81 462.69 218.01C463.94 218.19 463.96 220.16 464.34 220.96C465.01 222.39 466.08 223.09 466.99 224.33C467.65 225.23 467.22 226.28 467.67 227.15C468.1 227.99 470.05 229.27 471 229.46Z" fill="#c92548" fill-rule="evenodd" stroke="#c92548" stroke-width="0.25" stroke-linejoin="round"/>
<path d="M247.48 99C245.74 104.88 245.12 111.11 243.78 117.09C240 133.92 236.71 150.9 233.14 167.78C231.91 173.6 230.86 179.45 229.57 185.26C229.16 187.08 227.77 190.45 228.65 192.25C229.66 194.33 233.33 195.14 235.21 196.11C239.75 198.46 244.42 200.64 248.97 202.97C252.31 204.68 255.76 207.34 259.42 208.2C261.03 209.52 263.18 210.28 265.05 211.23C269.69 213.59 274.31 215.98 278.98 218.28C291 224.17 302.75 230.61 314.79 236.46C319.15 238.58 323.36 241.1 327.77 243.09C330.83 244.47 334.31 245.87 336.42 248.5C336.38 251.68 334.99 253.68 331.75 253.93C304.56 240.26 277.37 226.6 250.19 212.94C248.7 211.45 246.36 210.75 244.47 209.76C240.52 207.7 236.59 205.62 232.57 203.69C231.25 203.05 228.23 200.77 226.76 201.43C226.01 201.76 225.91 203.3 225.74 203.99C225.08 206.73 224.41 209.46 223.96 212.25C222.99 218.18 221.51 224.07 220.23 229.94C219.91 231.43 219.91 233.01 219.52 234.48C218.66 237.73 217.75 241.13 217.47 244.5C216.63 247.05 216.3 249.87 215.77 252.51C214.5 258.9 213.16 265.29 211.84 271.67C209.61 282.37 207 293 204.98 303.75C204.1 308.42 202.72 313.06 202.05 317.75C201.92 318.62 200.86 321.4 201.76 321.97C202.7 322.58 207.86 319.8 208.95 319.21C215.75 315.57 222.97 312.59 229.9 309.16C239.21 304.55 248.78 300.45 258.08 295.8C268.83 290.44 279.64 285.03 290.52 279.93C295.89 277.41 301.17 274.72 306.6 272.33C310.35 270.68 314.98 269.02 318.2 266.55C322.81 265.21 327.18 262.32 331.52 260.28C338.54 256.98 345.51 253.62 352.5 250.27C355.6 248.77 362.82 245.06 362.99 251.75C363.04 253.61 361.13 255.08 359.62 255.84C355.26 258.02 350.77 260.1 346.32 262.09C335.29 267.01 324.57 272.74 313.63 277.86C307.3 280.82 300.1 283.5 294.33 287.26C288.67 288.74 279.71 294.07 274.09 296.81C260.81 303.28 247.57 309.64 234.21 315.95C225.24 320.17 216.21 324.46 207.46 328.98C206.2 329.62 204.13 330.7 202.74 330.94C201.75 331.12 200.37 330.68 199.54 331.33C198.9 331.82 198.92 333.31 198.73 334.03C198.02 336.73 197.58 339.51 197.01 342.25C195.37 350.12 193.29 358.06 192.15 366C191.73 369.01 190.53 372 190.41 375C188.97 379.36 188.42 384.26 187.56 388.77C185.92 397.32 183.84 405.77 182.16 414.31C181.58 417.25 180.87 420.16 180.29 423.11C179.98 424.65 180.08 426.5 179.47 427.95C178.2 430.99 172.56 431.29 171.87 427.75C170.95 423.07 174.01 416.86 174.22 412C175.52 410.5 176.59 402.24 177.11 399.75C179.45 388.61 182 377.53 183.96 366.28C187.3 347.13 191.97 328.17 195.82 309.15C198.38 296.51 201.11 283.89 203.7 271.25C204.74 266.2 205.47 261.11 206.63 256.09C207.62 253.91 207.69 251.18 208.15 248.79C208.77 245.63 209.55 242.48 210.17 239.32C211.99 229.96 214.58 220.68 216.01 211.25C216.53 207.88 217.51 204.61 218.08 201.26C218.29 200.04 219.17 198.41 218.55 197.22C217.56 195.33 209.24 191.96 206.97 190.78C200.25 187.29 193.34 184.11 186.59 180.68C182.13 178.42 177.44 175.23 172.67 173.82C170.9 171.91 167.43 170.87 165.03 169.71C159.78 167.18 154.57 164.52 149.38 161.85C146.76 160.51 142.06 158.01 144.67 154.4C147.42 150.6 152.46 154.43 155.37 155.87C161.6 158.98 167.81 162.12 174.05 165.26C177.01 166.75 180.33 169.13 183.5 169.95C186.06 171.62 189.01 172.56 191.64 174.11C197.87 177.8 204.71 180.82 211.25 183.99C212.83 184.75 218.8 188.41 220.22 188C221.52 187.63 221.59 184.64 221.77 183.57C222.49 179.11 223.63 174.69 224.49 170.25C226.96 157.38 229.77 144.58 232.42 131.74C233.1 128.42 233.63 125.02 234.4 121.73C235.08 118.79 236.15 115.74 236.07 112.72C237.78 109.78 237.58 105.8 238.41 102.5C240.44 94.38 241.74 86.02 243.66 77.85C244.42 74.59 244.21 67.08 248.75 66.79C252.91 66.51 253.5 70.35 252.74 73.55C250.77 81.91 248.68 90.5 247.48 99Z" fill="#0c0108" fill-rule="evenodd" stroke="#0c0108" stroke-width="0.25" stroke-linejoin="round"/>
<path d="M287 50.8C239.17 50.83 191.33 50.86 143.5 50.9C145.7 49.8 151.53 50.5 154.25 50.5C162.58 50.5 170.92 50.5 179.25 50.5C204.42 50.5 229.58 50.5 254.75 50.5C262.08 50.5 269.42 50.5 276.75 50.5C279.83 50.5 284.15 49.75 287 50.8Z" fill="#ffffff" fill-rule="evenodd" stroke="#ffffff" stroke-width="0.25" stroke-linejoin="round"/>
</svg>